<svg width="7" height="12" viewBox="0 0 7 12" fill="none" xmlns="http://www.w3.org/2000/svg">
<path d="M5.14648 7.80273C5.14648 7.44336 5.01953 7.14062 4.76562 6.89453C4.51562 6.64844 4.0918 6.42578 3.49414 6.22656C2.66211 5.97266 2.05469 5.64258 1.67188 5.23633C1.29297 4.82617 1.10352 4.30664 1.10352 3.67773C1.10352 3.03711 1.28906 2.51172 1.66016 2.10156C2.03516 1.69141 2.54883 1.44727 3.20117 1.36914V0.0859375H4.07422V1.375C4.73047 1.46484 5.24023 1.74023 5.60352 2.20117C5.9707 2.66211 6.1543 3.29297 6.1543 4.09375H5.07617C5.07617 3.54297 4.94531 3.10547 4.68359 2.78125C4.42188 2.45703 4.06836 2.29492 3.62305 2.29492C3.1582 2.29492 2.80273 2.41602 2.55664 2.6582C2.31055 2.89648 2.1875 3.23047 2.1875 3.66016C2.1875 4.05859 2.31641 4.37695 2.57422 4.61523C2.83594 4.84961 3.26367 5.06445 3.85742 5.25977C4.45508 5.45117 4.91992 5.66406 5.25195 5.89844C5.58789 6.12891 5.83398 6.39844 5.99023 6.70703C6.15039 7.01562 6.23047 7.37695 6.23047 7.79102C6.23047 8.45117 6.03125 8.98242 5.63281 9.38477C5.23828 9.78711 4.68359 10.0254 3.96875 10.0996V11.2188H3.10156V10.0996C2.375 10.0332 1.80469 9.77539 1.39062 9.32617C0.980469 8.87305 0.775391 8.25977 0.775391 7.48633H1.85938C1.85938 8.0293 2.00195 8.44727 2.28711 8.74023C2.57227 9.0332 2.97656 9.17969 3.5 9.17969C4.01172 9.17969 4.41406 9.05664 4.70703 8.81055C5 8.56445 5.14648 8.22852 5.14648 7.80273Z" fill="black"/>
</svg>
