<svg width="5" height="12" viewBox="0 0 5 12" fill="none" xmlns="http://www.w3.org/2000/svg">
<path d="M2.374 11C2.04733 10.3467 1.54333 9.73067 0.862 9.152V8.662C1.45933 8.95133 1.90733 9.222 2.206 9.474V1.312H2.794V9.474C3.09267 9.222 3.54067 8.95133 4.138 8.662V9.152C3.45667 9.73067 2.95267 10.3467 2.626 11H2.374Z" fill="white"/>
<path d="M2.374 11L1.92679 11.2236L2.06498 11.5H2.374V11ZM0.862 9.152H0.362V9.38334L0.538327 9.5331L0.862 9.152ZM0.862 8.662L1.07996 8.21201L0.362 7.86425V8.662H0.862ZM2.206 9.474L1.88356 9.85615L2.706 10.5501V9.474H2.206ZM2.206 1.312V0.812H1.706V1.312H2.206ZM2.794 1.312H3.294V0.812H2.794V1.312ZM2.794 9.474H2.294V10.5501L3.11644 9.85615L2.794 9.474ZM4.138 8.662H4.638V7.86425L3.92004 8.21201L4.138 8.662ZM4.138 9.152L4.46167 9.5331L4.638 9.38334V9.152H4.138ZM2.626 11V11.5H2.93502L3.07321 11.2236L2.626 11ZM2.82121 10.7764C2.45846 10.0509 1.90718 9.38369 1.18567 8.7709L0.538327 9.5331C1.17948 10.0776 1.6362 10.6424 1.92679 11.2236L2.82121 10.7764ZM1.362 9.152V8.662H0.362V9.152H1.362ZM0.644036 9.11199C1.22603 9.3939 1.63128 9.64328 1.88356 9.85615L2.52844 9.09185C2.18339 8.80072 1.69263 8.50877 1.07996 8.21201L0.644036 9.11199ZM2.706 9.474V1.312H1.706V9.474H2.706ZM2.206 1.812H2.794V0.812H2.206V1.812ZM2.294 1.312V9.474H3.294V1.312H2.294ZM3.11644 9.85615C3.36872 9.64328 3.77397 9.3939 4.35596 9.11199L3.92004 8.21201C3.30737 8.50877 2.81661 8.80072 2.47156 9.09185L3.11644 9.85615ZM3.638 8.662V9.152H4.638V8.662H3.638ZM3.81433 8.7709C3.09282 9.38369 2.54154 10.0509 2.17879 10.7764L3.07321 11.2236C3.3638 10.6424 3.82052 10.0776 4.46167 9.5331L3.81433 8.7709ZM2.626 10.5H2.374V11.5H2.626V10.5Z" fill="white"/>
</svg>
