<svg width="30" height="24" viewBox="0 0 30 24" fill="none" xmlns="http://www.w3.org/2000/svg">
<path d="M18.6285 6.44549L17.171 4.98801L7.81195 14.3471C7.17973 14.9789 6.32245 15.3336 5.42867 15.3333C4.5349 15.333 3.67786 14.9776 3.04609 14.3454C2.41432 13.7132 2.05956 12.8559 2.05988 11.9622C2.06019 11.0684 2.41554 10.2113 3.04775 9.57957L11.122 1.50533L9.66451 0.0478516L1.59027 8.12209C1.07626 8.62418 0.666983 9.22327 0.386145 9.88465C0.105307 10.546 -0.04151 11.2566 -0.0458016 11.9751C-0.0500931 12.6936 0.088226 13.4059 0.361144 14.0706C0.634061 14.7352 1.03615 15.3392 1.54413 15.8474C2.0521 16.3556 2.65586 16.7579 3.32044 17.0311C3.98501 17.3043 4.69719 17.443 5.41571 17.439C6.13424 17.435 6.84484 17.2885 7.50634 17.0079C8.16785 16.7274 8.76711 16.3184 9.26943 15.8046L18.6285 6.44549ZM27.9444 8.12209C26.9245 7.10557 25.5432 6.53478 24.1032 6.53478C22.6632 6.53478 21.2819 7.10557 20.2619 8.12209L10.9029 17.4812L12.3603 18.9387L21.7194 9.57957C22.1909 9.10905 22.7912 8.7888 23.4446 8.65928C24.0979 8.52975 24.775 8.59675 25.3903 8.85183C26.0056 9.1069 26.5315 9.5386 26.9016 10.0924C27.2717 10.6462 27.4694 11.2973 27.4697 11.9633C27.4714 12.4071 27.3841 12.8466 27.213 13.2561C27.042 13.6655 26.7906 14.0365 26.4737 14.3471L18.4094 22.4213L19.8702 23.8788L27.9444 15.8046C28.9618 14.7851 29.5331 13.4036 29.5331 11.9633C29.5331 10.5231 28.9618 9.14161 27.9444 8.12209Z" fill="white"/>
</svg>
