<svg width="15" height="6" viewBox="0 0 15 6" fill="none" xmlns="http://www.w3.org/2000/svg">
<path d="M10.722 4.95C11.094 4.182 11.442 3.606 11.766 3.222H1.272V2.466H11.766C11.442 2.082 11.094 1.506 10.722 0.738H11.352C12.108 1.614 12.9 2.262 13.728 2.682V3.006C12.9 3.426 12.108 4.074 11.352 4.95H10.722Z" fill="black"/>
<path d="M10.722 4.95L10.272 4.73204L9.92425 5.45H10.722V4.95ZM11.766 3.222L12.1481 3.54444L12.8421 2.722H11.766V3.222ZM1.272 3.222H0.772V3.722H1.272V3.222ZM1.272 2.466V1.966H0.772V2.466H1.272ZM11.766 2.466V2.966H12.8421L12.1481 2.14356L11.766 2.466ZM10.722 0.738V0.238H9.92425L10.272 0.955964L10.722 0.738ZM11.352 0.738L11.7305 0.411325L11.5809 0.238H11.352V0.738ZM13.728 2.682H14.228V2.37498L13.9542 2.23609L13.728 2.682ZM13.728 3.006L13.9542 3.45191L14.228 3.31302V3.006H13.728ZM11.352 4.95V5.45H11.5809L11.7305 5.27667L11.352 4.95ZM11.172 5.16796C11.5366 4.4153 11.8633 3.88206 12.1481 3.54444L11.3839 2.89956C11.0207 3.32994 10.6514 3.9487 10.272 4.73204L11.172 5.16796ZM11.766 2.722H1.272V3.722H11.766V2.722ZM1.772 3.222V2.466H0.772V3.222H1.772ZM1.272 2.966H11.766V1.966H1.272V2.966ZM12.1481 2.14356C11.8633 1.80594 11.5366 1.2727 11.172 0.520036L10.272 0.955964C10.6514 1.7393 11.0207 2.35806 11.3839 2.78843L12.1481 2.14356ZM10.722 1.238H11.352V0.238H10.722V1.238ZM10.9735 1.06467C11.7619 1.97823 12.6034 2.67218 13.5018 3.12791L13.9542 2.23609C13.1966 1.85182 12.4541 1.24977 11.7305 0.411325L10.9735 1.06467ZM13.228 2.682V3.006H14.228V2.682H13.228ZM13.5018 2.56009C12.6034 3.01582 11.7619 3.70977 10.9735 4.62333L11.7305 5.27667C12.4541 4.43823 13.1966 3.83618 13.9542 3.45191L13.5018 2.56009ZM11.352 4.45H10.722V5.45H11.352V4.45Z" fill="black"/>
</svg>
